# xmcd
#
# Track frame offsets: 
#        150
#        24225
#        36825
#        65550
#        95175
#        111525
#
# Disc length: 1964 seconds
#
# Revision: 0
# Processed by: cddbd v1.5.2PL0 Copyright (c) Steve Scherf et al.
# Submitted via: ExactAudioCopyFreeDBPlugin 1.0
#
DISCID=5107aa06
DTITLE=White Cowbell Oklahoma - Mixto Sixto
DYEAR=2015
DGENRE=Blues
TTITLE0=Speed King
TTITLE1=Kansas City Pity
TTITLE2=Keep It On The Rail
TTITLE3=I'm Screamin' For It
TTITLE4=Keepin' Six
TTITLE5=Magic Fingers
EXTD=
EXTT0=
EXTT1=
EXTT2=
EXTT3=
EXTT4=
EXTT5=
PLAYORDER=
